{
    "asset" : {
        "generator" : "Khronos glTF Blender I/O v3.4.50",
        "version" : "2.0"
    },
    "scene" : 0,
    "scenes" : [
        {
            "name" : "Scene",
            "nodes" : [
                9
            ]
        }
    ],
    "nodes" : [
        {
            "mesh" : 0,
            "name" : "Cylinder_Environment.1_0",
            "translation" : [
                162.6367950439453,
                329.27008056640625,
                -150.1631622314453
            ]
        },
        {
            "children" : [
                0
            ],
            "name" : "Cylinder",
            "translation" : [
                0,
                6.103512714616954e-05,
                49.93729782104492
            ]
        },
        {
            "mesh" : 1,
            "name" : "Plane_003_Environment.2_0",
            "translation" : [
                0,
                6.103512714616954e-05,
                3.814687943304307e-06
            ]
        },
        {
            "children" : [
                2
            ],
            "name" : "Plane_003",
            "translation" : [
                0,
                6.103512714616954e-05,
                52.126129150390625
            ]
        },
        {
            "children" : [
                1,
                3
            ],
            "name" : "Panel_1",
            "rotation" : [
                -0.5000000596046448,
                -0.4999999403953552,
                -0.4999999403953552,
                0.5000000596046448
            ],
            "translation" : [
                -644.2333984375,
                0,
                0.0001251664070878178
            ]
        },
        {
            "mesh" : 2,
            "name" : "Plane_Environment_0"
        },
        {
            "children" : [
                5
            ],
            "name" : "Plane",
            "translation" : [
                0,
                -100.28688049316406,
                0
            ]
        },
        {
            "children" : [
                4,
                6
            ],
            "name" : "RootNode"
        },
        {
            "children" : [
                7
            ],
            "name" : "c80b2d55c54c4da98372220e34487957.fbx",
            "rotation" : [
                0.70710688829422,
                0,
                0,
                0.7071066498756409
            ]
        },
        {
            "children" : [
                8
            ],
            "name" : "Sketchfab_model",
            "rotation" : [
                -0.70710688829422,
                0,
                0,
                0.7071066498756409
            ]
        }
    ],
    "materials" : [
        {
            "doubleSided" : true,
            "name" : "Environment.1",
            "pbrMetallicRoughness" : {
                "baseColorTexture" : {
                    "index" : 0
                },
                "metallicFactor" : 0,
                "roughnessFactor" : 0.823941707611084
            }
        },
        {
            "doubleSided" : true,
            "name" : "Environment.2",
            "pbrMetallicRoughness" : {
                "baseColorTexture" : {
                    "index" : 1
                },
                "metallicFactor" : 0,
                "roughnessFactor" : 0.823941707611084
            }
        },
        {
            "doubleSided" : true,
            "name" : "Environment",
            "pbrMetallicRoughness" : {
                "baseColorTexture" : {
                    "index" : 2
                },
                "metallicFactor" : 0,
                "roughnessFactor" : 0.823941707611084
            }
        }
    ],
    "meshes" : [
        {
            "name" : "Cylinder_Environment.1_0",
            "primitives" : [
                {
                    "attributes" : {
                        "POSITION" : 0,
                        "TEXCOORD_0" : 1,
                        "NORMAL" : 2
                    },
                    "indices" : 3,
                    "material" : 0
                }
            ]
        },
        {
            "name" : "Plane_003_Environment.2_0",
            "primitives" : [
                {
                    "attributes" : {
                        "POSITION" : 4,
                        "TEXCOORD_0" : 5,
                        "NORMAL" : 6
                    },
                    "indices" : 7,
                    "material" : 1
                }
            ]
        },
        {
            "name" : "Plane_Environment_0",
            "primitives" : [
                {
                    "attributes" : {
                        "POSITION" : 8,
                        "TEXCOORD_0" : 9,
                        "NORMAL" : 10
                    },
                    "indices" : 11,
                    "material" : 2
                }
            ]
        }
    ],
    "textures" : [
        {
            "sampler" : 0,
            "source" : 0
        },
        {
            "sampler" : 0,
            "source" : 0
        },
        {
            "sampler" : 0,
            "source" : 0
        }
    ],
    "images" : [
        {
            "bufferView" : 4,
            "mimeType" : "image/png",
            "name" : "Environment_baseColor"
        }
    ],
    "accessors" : [
        {
            "bufferView" : 0,
            "componentType" : 5126,
            "count" : 317,
            "max" : [
                -100.99110412597656,
                -242.82785034179688,
                182.8050994873047
            ],
            "min" : [
                -224.2484588623047,
                -366.0602111816406,
                -1.218505859375
            ],
            "type" : "VEC3"
        },
        {
            "bufferView" : 1,
            "componentType" : 5126,
            "count" : 317,
            "type" : "VEC2"
        },
        {
            "bufferView" : 2,
            "componentType" : 5126,
            "count" : 317,
            "type" : "VEC3"
        },
        {
            "bufferView" : 3,
            "componentType" : 5123,
            "count" : 552,
            "type" : "SCALAR"
        },
        {
            "bufferView" : 5,
            "componentType" : 5126,
            "count" : 1845,
            "max" : [
                176.72293090820312,
                125.18982696533203,
                153.49180603027344
            ],
            "min" : [
                -176.72293090820312,
                -125.89484405517578,
                -97.59284973144531
            ],
            "type" : "VEC3"
        },
        {
            "bufferView" : 6,
            "componentType" : 5126,
            "count" : 1845,
            "type" : "VEC2"
        },
        {
            "bufferView" : 7,
            "componentType" : 5126,
            "count" : 1845,
            "type" : "VEC3"
        },
        {
            "bufferView" : 8,
            "componentType" : 5123,
            "count" : 1944,
            "type" : "SCALAR"
        },
        {
            "bufferView" : 9,
            "componentType" : 5126,
            "count" : 4,
            "max" : [
                2723,
                0,
                2723
            ],
            "min" : [
                -2723,
                0,
                -2723
            ],
            "type" : "VEC3"
        },
        {
            "bufferView" : 10,
            "componentType" : 5126,
            "count" : 4,
            "type" : "VEC2"
        },
        {
            "bufferView" : 11,
            "componentType" : 5126,
            "count" : 4,
            "type" : "VEC3"
        },
        {
            "bufferView" : 12,
            "componentType" : 5123,
            "count" : 6,
            "type" : "SCALAR"
        }
    ],
    "bufferViews" : [
        {
            "buffer" : 0,
            "byteLength" : 3804,
            "byteOffset" : 0,
            "target" : 34962
        },
        {
            "buffer" : 0,
            "byteLength" : 2536,
            "byteOffset" : 3804,
            "target" : 34962
        },
        {
            "buffer" : 0,
            "byteLength" : 3804,
            "byteOffset" : 6340,
            "target" : 34962
        },
        {
            "buffer" : 0,
            "byteLength" : 1104,
            "byteOffset" : 10144,
            "target" : 34963
        },
        {
            "buffer" : 0,
            "byteLength" : 3556,
            "byteOffset" : 11248
        },
        {
            "buffer" : 0,
            "byteLength" : 22140,
            "byteOffset" : 14804,
            "target" : 34962
        },
        {
            "buffer" : 0,
            "byteLength" : 14760,
            "byteOffset" : 36944,
            "target" : 34962
        },
        {
            "buffer" : 0,
            "byteLength" : 22140,
            "byteOffset" : 51704,
            "target" : 34962
        },
        {
            "buffer" : 0,
            "byteLength" : 3888,
            "byteOffset" : 73844,
            "target" : 34963
        },
        {
            "buffer" : 0,
            "byteLength" : 48,
            "byteOffset" : 77732,
            "target" : 34962
        },
        {
            "buffer" : 0,
            "byteLength" : 32,
            "byteOffset" : 77780,
            "target" : 34962
        },
        {
            "buffer" : 0,
            "byteLength" : 48,
            "byteOffset" : 77812,
            "target" : 34962
        },
        {
            "buffer" : 0,
            "byteLength" : 12,
            "byteOffset" : 77860,
            "target" : 34963
        }
    ],
    "samplers" : [
        {
            "magFilter" : 9729,
            "minFilter" : 9987
        }
    ],
    "buffers" : [
        {
            "byteLength" : 77872,
            "uri" : "data:application/octet-stream;base64,"
        }
    ]
}
