{
  "accessors": [
    {
      "bufferView": 2,
      "componentType": 5126,
      "count": 4,
      "max": [
        2723.0,
        0.0,
        2723.0
      ],
      "min": [
        -2723.0,
        0.0,
        -2723.0
      ],
      "type": "VEC3"
    },
    {
      "bufferView": 2,
      "byteOffset": 48,
      "componentType": 5126,
      "count": 4,
      "max": [
        0.0,
        1.0,
        -0.0
      ],
      "min": [
        0.0,
        1.0,
        -0.0
      ],
      "type": "VEC3"
    },
    {
      "bufferView": 1,
      "componentType": 5126,
      "count": 4,
      "max": [
        0.703000009059906,
        0.6100000739097595
      ],
      "min": [
        0.6330000162124634,
        0.5400000214576721
      ],
      "type": "VEC2"
    },
    {
      "bufferView": 0,
      "componentType": 5125,
      "count": 6,
      "type": "SCALAR"
    },
    {
      "bufferView": 2,
      "byteOffset": 96,
      "componentType": 5126,
      "count": 204,
      "max": [
        61.645687103271484,
        86.44216918945313,
        32.64193344116211
      ],
      "min": [
        -61.611663818359375,
        -36.79020309448242,
        -151.3816680908203
      ],
      "type": "VEC3"
    },
    {
      "bufferView": 2,
      "byteOffset": 2544,
      "componentType": 5126,
      "count": 204,
      "max": [
        1.0,
        1.0,
        1.0
      ],
      "min": [
        -1.0,
        -1.0,
        -1.0
      ],
      "type": "VEC3"
    },
    {
      "bufferView": 1,
      "byteOffset": 32,
      "componentType": 5126,
      "count": 204,
      "max": [
        0.4589189291000366,
        0.9620295763015747
      ],
      "min": [
        0.30228471755981445,
        0.6769810914993286
      ],
      "type": "VEC2"
    },
    {
      "bufferView": 0,
      "byteOffset": 24,
      "componentType": 5125,
      "count": 552,
      "type": "SCALAR"
    },
    {
      "bufferView": 2,
      "byteOffset": 4992,
      "componentType": 5126,
      "count": 806,
      "max": [
        176.72293090820313,
        125.18982696533203,
        153.49180603027344
      ],
      "min": [
        -176.72293090820313,
        -125.89484405517578,
        -97.59284973144531
      ],
      "type": "VEC3"
    },
    {
      "bufferView": 2,
      "byteOffset": 14664,
      "componentType": 5126,
      "count": 806,
      "max": [
        1.0,
        0.7071084380149841,
        0.707108199596405
      ],
      "min": [
        -1.0,
        -0.7071076035499573,
        -0.7071086764335632
      ],
      "type": "VEC3"
    },
    {
      "bufferView": 1,
      "byteOffset": 1664,
      "componentType": 5126,
      "count": 806,
      "max": [
        0.9102049469947815,
        0.8827393651008606
      ],
      "min": [
        0.06327319145202637,
        0.24780237674713135
      ],
      "type": "VEC2"
    },
    {
      "bufferView": 0,
      "byteOffset": 2232,
      "componentType": 5125,
      "count": 1944,
      "type": "SCALAR"
    }
  ],
  "asset": {
    "extras": {
      "author": "antonmoek (https://sketchfab.com/antonmoek)",
      "license": "CC-BY-4.0 (http://creativecommons.org/licenses/by/4.0/)",
      "source": "https://sketchfab.com/3d-models/cartoon-low-poly-solar-panel-5a3a5a0b073044af8b388cb494ff0869",
      "title": "Cartoon Low Poly Solar Panel"
    },
    "generator": "Sketchfab-12.66.0",
    "version": "2.0"
  },
  "bufferViews": [
    {
      "buffer": 0,
      "byteLength": 10008,
      "name": "floatBufferViews",
      "target": 34963
    },
    {
      "buffer": 0,
      "byteLength": 8112,
      "byteOffset": 10008,
      "byteStride": 8,
      "name": "floatBufferViews",
      "target": 34962
    },
    {
      "buffer": 0,
      "byteLength": 24336,
      "byteOffset": 18120,
      "byteStride": 12,
      "name": "floatBufferViews",
      "target": 34962
    }
  ],
  "buffers": [
    {
      "byteLength": 42456,
      "uri": "scene.bin"
    }
  ],
  "images": [
    {
      "uri": "textures/Environment_baseColor.png"
    }
  ],
  "materials": [
    {
      "doubleSided": true,
      "name": "Environment",
      "pbrMetallicRoughness": {
        "baseColorTexture": {
          "index": 0
        },
        "metallicFactor": 0.0,
        "roughnessFactor": 0.8239417257461427
      }
    },
    {
      "doubleSided": true,
      "name": "Environment.1",
      "pbrMetallicRoughness": {
        "baseColorTexture": {
          "index": 0
        },
        "metallicFactor": 0.0,
        "roughnessFactor": 0.8239417257461427
      }
    },
    {
      "doubleSided": true,
      "name": "Environment.2",
      "pbrMetallicRoughness": {
        "baseColorTexture": {
          "index": 0
        },
        "metallicFactor": 0.0,
        "roughnessFactor": 0.8239417257461427
      }
    }
  ],
  "meshes": [
    {
      "name": "Plane_Environment_0",
      "primitives": [
        {
          "attributes": {
            "NORMAL": 1,
            "POSITION": 0,
            "TEXCOORD_0": 2
          },
          "indices": 3,
          "material": 0,
          "mode": 4
        }
      ]
    },
    {
      "name": "Cylinder_Environment.1_0",
      "primitives": [
        {
          "attributes": {
            "NORMAL": 5,
            "POSITION": 4,
            "TEXCOORD_0": 6
          },
          "indices": 7,
          "material": 1,
          "mode": 4
        }
      ]
    },
    {
      "name": "Plane_003_Environment.2_0",
      "primitives": [
        {
          "attributes": {
            "NORMAL": 9,
            "POSITION": 8,
            "TEXCOORD_0": 10
          },
          "indices": 11,
          "material": 2,
          "mode": 4
        }
      ]
    }
  ],
  "nodes": [
    {
      "children": [
        1
      ],
      "matrix": [
        1.0,
        0.0,
        0.0,
        0.0,
        0.0,
        2.220446049250313e-16,
        -1.0,
        0.0,
        0.0,
        1.0,
        2.220446049250313e-16,
        0.0,
        0.0,
        0.0,
        0.0,
        1.0
      ],
      "name": "Sketchfab_model"
    },
    {
      "children": [
        2
      ],
      "matrix": [
        1.0,
        0.0,
        0.0,
        0.0,
        0.0,
        0.0,
        1.0,
        0.0,
        0.0,
        -1.0,
        0.0,
        0.0,
        0.0,
        0.0,
        0.0,
        1.0
      ],
      "name": "c80b2d55c54c4da98372220e34487957.fbx"
    },
    {
      "children": [
        3,
        5
      ],
      "name": "RootNode"
    },
    {
      "children": [
        4
      ],
      "matrix": [
        1.0,
        0.0,
        0.0,
        0.0,
        0.0,
        1.0,
        0.0,
        0.0,
        0.0,
        0.0,
        1.0,
        0.0,
        0.0,
        -100.28688049316406,
        0.0,
        1.0
      ],
      "name": "Plane"
    },
    {
      "mesh": 0,
      "name": "Plane_Environment_0"
    },
    {
      "children": [
        6,
        8
      ],
      "matrix": [
        1.9428737152438202e-07,
        5.551115123125783e-17,
        0.9999999999999811,
        0.0,
        0.9999999999999811,
        0.0,
        -1.9428737152438202e-07,
        0.0,
        -5.551115123125783e-17,
        1.0,
        0.0,
        0.0,
        -644.2333984375,
        -7.664232272087275e-21,
        0.0001251664070878178,
        1.0
      ],
      "name": "Panel_1"
    },
    {
      "children": [
        7
      ],
      "matrix": [
        1.0,
        -5.293955920339376e-23,
        0.0,
        0.0,
        5.293955920339376e-23,
        1.0,
        5.906089101664868e-33,
        0.0,
        -3.1266575365810594e-55,
        -5.906089101664868e-33,
        1.0,
        0.0,
        3.057775387060868e-15,
        0.0,
        49.93729782104492,
        1.0
      ],
      "name": "Cylinder"
    },
    {
      "mesh": 1,
      "name": "Cylinder_Environment.1_0"
    },
    {
      "children": [
        9
      ],
      "matrix": [
        1.0,
        -5.293955920339376e-23,
        0.0,
        0.0,
        5.293955920339376e-23,
        1.0,
        5.906089101664868e-33,
        0.0,
        -3.1266575365810594e-55,
        -5.906089101664868e-33,
        1.0,
        0.0,
        3.1918098806343886e-15,
        0.0,
        52.126129150390625,
        1.0
      ],
      "name": "Plane_003"
    },
    {
      "mesh": 2,
      "name": "Plane_003_Environment.2_0"
    }
  ],
  "samplers": [
    {
      "magFilter": 9729,
      "minFilter": 9987,
      "wrapS": 10497,
      "wrapT": 10497
    }
  ],
  "scene": 0,
  "scenes": [
    {
      "name": "Sketchfab_Scene",
      "nodes": [
        0
      ]
    }
  ],
  "textures": [
    {
      "sampler": 0,
      "source": 0
    }
  ]
}
